PathFileType	4	(X/Y/Z)	Walk9.trc
DataRate	CameraRate	NumFrames	NumMarkers	Units	OrigDataRate	OrigDataStartFrame	OrigNumFrames
200.000000	200.000000	4	59	mm	200.000000	410	528
Frame#	Times		LFHD		RBHD		C7		T10		CLAV		STRN		RBack		LASI		RASI		RPSI		RACR1		RUA1		RElbow		RFA1		RWRR		RWRU		RCAR		LACR1		LUA1		LFA1		LWRR		LCAR		RTH1		RTH3		RTH2		RTH4		RLFC		LTH1		LTH3		LTH2		LTH4		LLFC		LTB1		LTB3		LTB2		LTB4		LLMAL		LMMAL		LMT1		LMT5		LToe		LPSI		RFHD		LElbowM		LElbow		LBHD		RMMAL		LWRU		RTB4		RTB2		RTB1		RTB3		RToe		RCAL		RElbowM		RMT1		RLMAL		RMT5		LCAL
			X1	Y1	Z1	X2	Y2	Z2	X3	Y3	Z3	X4	Y4	Z4	X5	Y5	Z5	X6	Y6	Z6	X7	Y7	Z7	X8	Y8	Z8	X9	Y9	Z9	X10	Y10	Z10	X11	Y11	Z11	X12	Y12	Z12	X13	Y13	Z13	X14	Y14	Z14	X15	Y15	Z15	X16	Y16	Z16	X17	Y17	Z17	X18	Y18	Z18	X19	Y19	Z19	X20	Y20	Z20	X21	Y21	Z21	X22	Y22	Z22	X23	Y23	Z23	X24	Y24	Z24	X25	Y25	Z25	X26	Y26	Z26	X27	Y27	Z27	X28	Y28	Z28	X29	Y29	Z29	X30	Y30	Z30	X31	Y31	Z31	X32	Y32	Z32	X33	Y33	Z33	X34	Y34	Z34	X35	Y35	Z35	X36	Y36	Z36	X37	Y37	Z37	X38	Y38	Z38	X39	Y39	Z39	X40	Y40	Z40	X41	Y41	Z41	X42	Y42	Z42	X43	Y43	Z43	X44	Y44	Z44	X45	Y45	Z45	X46	Y46	Z46	X47	Y47	Z47	X48	Y48	Z48	X49	Y49	Z49	X50	Y50	Z50	X51	Y51	Z51	X52	Y52	Z52	X53	Y53	Z53	X54	Y54	Z54	X55	Y55	Z55	X56	Y56	Z56	X57	Y57	Z57	X58	Y58	Z58	X59	Y59	Z59

410	2.05	511.68	1584.7	-7.4859	353.32	1543.1	108.3	350.86	1414.1	32.833	327.93	1129.1	26.006	478.69	1341.3	18.895	560.35	1118.6	15.517	316.23	1304.4	128.54	512	941.1	-114.91	516.9	943.33	160.13	303.94	976.17	85.3	434.46	1347.3	195.14	456.81	1138.9	258.3	467.6	1031.2	282.83	583.05	928.54	263.73	644.72	853.07	209.85	607.98	817.84	263.07	668.31	806.42	251.98	404.56	1355.3	-145.91	356.8	1152.5	-194.87	359.33	911.54	-230.38	370.28	791.78	-198.18	356.76	749.53	-240.19	408.46	741.2	195.87	385.69	558.28	152.17	462.3	652.39	142.79	396.35	649.46	171.53	358.84	453.88	136.03	448.74	731.37	-155.43	510.15	556.49	-128.53	544.33	664.89	-109.28	479.91	639.79	-144.49	540.74	457.51	-113.17	612.55	378.32	-42.632	660.82	196.89	-48.089	603.58	280.67	-112.4	638.75	286.58	-49.499	657.87	73.112	-90.794	677.75	95.849	-13.864	810.28	96.981	-69.302	774.62	60.815	-127.19	842.61	105.24	-97.386	300.73	964.08	-28.63	521.38	1586.7	65.051	310.76	1022.6	-138.37	320.85	1037.6	-207.87	342.29	1550.3	-18.24	208.04	88.294	10.529	314.32	798.09	-244.07	303.29	245.66	50.336	293.41	248.63	121.46	345.52	328.4	56.473	261.06	163.72	43.974	379.65	26.68	84.102	134.43	48.777	39.81	443.13	1002.9	203.73	335.56	38.43	47.705	184.92	75.478	88.951	286.31	21.139	130.2	630.82	27.945	-30.655
411	2.055	517.27	1583.8	-8.014	358.9	1542	107.68	356.7	1413.2	32.26	333.59	1128.1	25.389	484.54	1340.2	18.417	566.09	1117.5	15.257	321.94	1303.6	127.98	518.02	939.72	-114.75	521.98	942.57	160.47	309.45	975.26	84.512	440.19	1346.4	194.66	462.69	1138	257.92	473.7	1030.4	282.58	589.44	928.02	263.45	651.28	852.7	209.6	614.7	817.41	262.86	675.07	806.2	251.79	410.46	1354.2	-146.42	362.01	1151.5	-195.24	363.82	910.54	-230.67	374.56	790.78	-198.43	360.85	748.57	-240.41	413.05	740.5	195.78	389.27	557.69	152.16	466.27	651.36	142.5	400.46	648.88	171.57	361.7	453.41	135.99	454.4	730.16	-155.64	515.42	555.22	-128.27	549.62	663.59	-108.85	485.38	638.54	-144.44	546.56	456.56	-113.09	619.28	378.24	-42.369	670.45	197.46	-48.092	612.09	280.52	-112.41	646.99	286.86	-49.37	669.64	73.626	-90.951	688.93	96.595	-13.904	821.75	99.655	-68.837	787.12	62.774	-126.93	854.25	108.36	-96.599	306.55	963.06	-29.415	526.92	1585.9	64.528	315.68	1021.8	-138.67	325.71	1036.7	-208.14	347.93	1549.2	-18.868	208.39	88.738	10.575	318.5	797.19	-244.21	304.76	245.45	50.365	294.78	248.5	121.47	347.59	327.88	56.536	261.94	163.8	44	379.75	26.63	84.103	134.58	49.655	39.808	449.41	1001.9	203.44	335.63	38.353	47.638	185.16	76.058	88.915	286.33	21.16	130.14	643.03	27.872	-30.955
412	2.06	522.87	1582.9	-8.5726	364.5	1541	107.04	362.57	1412.3	31.653	339.29	1127.2	24.751	490.41	1339.2	17.902	571.87	1116.4	14.971	327.68	1302.7	127.39	524.07	938.35	-114.58	527.09	941.81	160.77	315.01	974.35	83.711	445.97	1345.4	194.14	468.58	1137.2	257.5	479.76	1029.5	282.29	595.75	927.44	263.17	657.75	852.25	209.36	621.3	816.91	262.67	681.7	805.9	251.6	416.39	1353.1	-146.97	367.26	1150.6	-195.65	368.38	909.54	-230.98	378.9	789.78	-198.68	365.03	747.6	-240.64	417.67	739.81	195.67	392.91	557.11	152.14	470.3	650.34	142.22	404.62	648.29	171.58	364.62	452.96	135.95	460.22	729.06	-155.86	520.99	554.1	-128.01	555.12	662.46	-108.41	491.09	637.43	-144.4	552.56	455.69	-113.02	625.99	378.09	-42.118	679.62	197.91	-48.04	620.33	280.35	-112.38	654.98	287.05	-49.218	680.62	74.05	-91.021	699.39	97.227	-13.871	832.44	101.97	-68.37	798.76	64.424	-126.63	865.1	111.05	-95.847	312.4	962.06	-30.218	532.48	1585.1	63.974	320.65	1021	-139	330.63	1035.8	-208.45	353.6	1548.1	-19.524	208.75	89.235	10.652	322.75	796.29	-244.38	306.27	245.26	50.415	296.19	248.42	121.51	349.71	327.38	56.609	262.85	163.91	44.052	379.85	26.58	84.095	134.74	50.6	39.835	455.62	1000.9	203.13	335.7	38.282	47.578	185.42	76.693	88.91	286.35	21.178	130.09	654.4	27.798	-31.126
413	2.065	528.49	1582.1	-9.1618	370.12	1539.9	106.36	368.47	1411.4	31.01	345.01	1126.3	24.093	496.31	1338.2	17.347	577.68	1115.2	14.656	333.46	1301.9	126.78	530.16	937.01	-114.44	532.23	941.04	161.02	320.61	973.46	82.902	451.78	1344.4	193.58	474.48	1136.3	257.04	485.78	1028.7	281.97	601.99	926.81	262.89	664.12	851.73	209.12	627.79	816.36	262.48	688.21	805.52	251.44	422.34	1352	-147.55	372.55	1149.6	-196.1	373	908.53	-231.31	383.31	788.79	-198.94	369.28	746.63	-240.88	422.34	739.12	195.56	396.61	556.53	152.13	474.38	649.33	141.95	408.82	647.71	171.58	367.6	452.52	135.92	466.25	728.08	-156.08	526.86	553.14	-127.76	560.83	661.5	-107.95	497.05	636.45	-144.36	558.75	454.91	-112.95	632.71	377.89	-41.878	688.3	198.21	-47.928	628.31	280.13	-112.32	662.72	287.12	-49.041	690.78	74.346	-90.997	709.13	97.711	-13.759	842.34	103.88	-67.897	809.51	65.712	-126.29	875.15	113.25	-95.128	318.31	961.07	-31.034	538.05	1584.3	63.389	325.67	1020.2	-139.36	335.61	1034.9	-208.8	359.28	1547	-20.207	209.12	89.79	10.761	327.08	795.38	-244.56	307.81	245.1	50.485	297.63	248.37	121.56	351.88	326.88	56.692	263.77	164.06	44.131	379.93	26.529	84.079	134.89	51.617	39.893	461.78	999.84	202.78	335.76	38.218	47.525	185.68	77.387	88.937	286.37	21.192	130.03	664.89	27.693	-31.163
